<svg width="401" height="299" viewBox="0 0 401 299" fill="none" xmlns="http://www.w3.org/2000/svg">
<path d="M323.387 11.5516C363.05 27.7996 400.496 63.9885 400.989 101.408C401.728 139.074 365.514 177.971 336.444 214.16C307.374 250.595 285.448 284.322 255.392 294.908C225.337 305.74 187.152 293.185 150.198 279.152C113.245 264.874 77.2771 249.118 46.729 219.084C16.4272 189.049 -8.70115 144.983 2.87758 112.24C14.4563 79.498 62.7421 58.0801 101.666 41.5859C140.591 25.3378 169.907 13.7672 205.875 6.38173C241.597 -1.24993 283.723 -4.69649 323.387 11.5516Z" fill="url(#paint0_linear)"/>
<defs>
<linearGradient id="paint0_linear" x1="-9.5" y1="150" x2="551" y2="150" gradientUnits="userSpaceOnUse">
<stop stop-color="#134E5E"/>
<stop offset="1" stop-color="#71B280"/>
</linearGradient>
</defs>
</svg>
